name rise42.5664peak47.7979fall81.9185.mot
datacolumns 19
datarows 11
range 15.42660600000000 15.44327400000000
endheader
time	ground_force1_vx	ground_force1_vy	ground_force1_vz	ground_force1_px	ground_force1_py	ground_force1_pz	ground_force2_vx	ground_force2_vy	ground_force2_vz	ground_force2_px	ground_force2_py	ground_force2_pz	ground_torque1_x	ground_torque1_y	ground_torque1_z	ground_torque2_x	ground_torque2_y	ground_torque2_z	
15.42660600000000	-38.71410300000000	791.79769099999999	52.90118300000000	0.09350800000000	0.00000000000000	0.11276900000000	-1.76974900000000	6.69274500000000	0.62027400000000	0.00000000000000	0.00000000000000	0.00000000000000	0.00000000000000	19.06656000000000	0.00000000000000	0.00000000000000	0.10274800000000	0.00000000000000	
15.42827600000000	-39.30226200000000	790.32606199999998	52.75252400000000	0.09262700000000	0.00000000000000	0.11262600000000	-2.51693700000000	10.74381200000000	0.92103900000000	0.00000000000000	0.00000000000000	0.00000000000000	0.00000000000000	19.02807100000000	0.00000000000000	0.00000000000000	0.16825700000000	0.00000000000000	
15.42993700000000	-39.90708400000000	788.74678300000005	52.58319600000000	0.09174700000000	0.00000000000000	0.11248000000000	-3.32679900000000	15.48084600000000	1.25744700000000	0.00000000000000	0.00000000000000	0.00000000000000	0.00000000000000	18.99005600000000	0.00000000000000	0.00000000000000	0.24511200000000	0.00000000000000	
15.43160200000000	-40.52858400000000	787.05743500000005	52.39281500000000	0.09087000000000	0.00000000000000	0.11233000000000	-4.17061300000000	20.83725700000000	1.62044100000000	0.00000000000000	0.00000000000000	0.00000000000000	0.00000000000000	18.95260300000000	0.00000000000000	0.00000000000000	0.33218000000000	0.00000000000000	
15.43327600000000	-41.16670300000000	785.25559699999997	52.18103500000000	0.08999400000000	0.00000000000000	0.11217700000000	-5.01582200000000	26.72042800000000	1.99917500000000	0.30661100000000	0.00000000000000	-0.07519100000000	0.00000000000000	18.91579000000000	0.00000000000000	0.00000000000000	0.66368000000000	0.00000000000000	
15.43494100000000	-41.82130600000000	783.33884699999999	51.94755100000000	0.08912100000000	0.00000000000000	0.11202000000000	-5.82839000000000	33.01954900000000	2.38181100000000	0.31263200000000	0.00000000000000	-0.07526700000000	0.00000000000000	18.87968700000000	0.00000000000000	0.00000000000000	0.83610800000000	0.00000000000000	
15.43660700000000	-42.49217800000000	781.30476599999997	51.69210000000000	0.08825000000000	0.00000000000000	0.11186000000000	-6.57533700000000	39.61518400000000	2.75640300000000	0.31793700000000	0.00000000000000	-0.07533100000000	0.00000000000000	18.84435200000000	0.00000000000000	0.00000000000000	1.01796200000000	0.00000000000000	
15.43827700000000	-43.17902500000000	779.15093899999999	51.41445900000000	0.08738200000000	0.00000000000000	0.11169700000000	-7.22710800000000	46.38918900000000	3.11176300000000	0.32264800000000	0.00000000000000	-0.07538600000000	0.00000000000000	18.80983600000000	0.00000000000000	0.00000000000000	1.20509600000000	0.00000000000000	
15.43995400000000	-43.88146900000000	776.87496099999998	51.11445000000000	0.08651600000000	0.00000000000000	0.11153100000000	-7.75949600000000	53.23366700000000	3.43819800000000	0.32685900000000	0.00000000000000	-0.07543400000000	0.00000000000000	18.77617600000000	0.00000000000000	0.00000000000000	1.39347700000000	0.00000000000000	
15.44160600000000	-44.59904600000000	774.47443999999996	50.79194200000000	0.08565400000000	0.00000000000000	0.11136200000000	-8.15490300000000	60.05800200000000	3.72803400000000	0.33064700000000	0.00000000000000	-0.07547700000000	0.00000000000000	18.74339800000000	0.00000000000000	0.00000000000000	1.57942900000000	0.00000000000000	
15.44327400000000	-45.33121100000000	771.94700000000000	50.44684800000000	0.08479500000000	0.00000000000000	0.11118900000000	-8.40290000000000	66.79346800000000	3.97590000000000	0.33407100000000	0.00000000000000	-0.07551700000000	0.00000000000000	18.71151700000000	0.00000000000000	0.00000000000000	1.75982200000000	0.00000000000000	
